# xmcd CD database file
#
# Track frame offsets:
#	150
#	4124
#	14210
#	36229
#	69343
#	84800
#	106985
#	127476
#	151937
#	194615
#	215070
#	256279
#	277496
#	296206
#	307989
#
# Disc length: 4276 seconds
#
# Revision: 5
# Processed by: cddbd v1.5.2PL0 Copyright (c) Steve Scherf et al.
# Submitted via: CDex 1.51
#
DISCID=e810b20f
DTITLE=Liszt - L'Oeuvre pour Piano - France Clidat  [CD 09-14]
DYEAR=1973
DGENRE=Piano
TTITLE0=12 Études d'exécution transcendante, S.139 - N°01  en ut majeur ''Preludio''
TTITLE1=12 Études d'exécution transcendante, S.139 - N°02  en la mineur
TTITLE2=12 Études d'exécution transcendante, S.139 - N°03  en fa majeur ''Paysage''
TTITLE3=12 Études d'exécution transcendante, S.139 - N°04  en ré mineur ''Mazeppa''
TTITLE4=12 Études d'exécution transcendante, S.139 - N°05  en si bémol majeur ''Feux follets''
TTITLE5=12 Études d'exécution transcendante, S.139 - N°06  en sol mineur ''Vision''
TTITLE6=12 Études d'exécution transcendante, S.139 - N°07  en mi bémol majeur ''Eroïca''
TTITLE7=12 Études d'exécution transcendante, S.139 - N°08  en ut mineur ''Wilde Jagd''
TTITLE8=12 Études d'exécution transcendante, S.139 - N°09  en la bémol majeur ''Ricordanza''
TTITLE9=12 Études d'exécution transcendante, S.139 - N°10  en fa mineur
TTITLE10=12 Études d'exécution transcendante, S.139 - N°11  en ré bémol majeur ''Harmonies du soir''
TTITLE11=12 Études d'exécution transcendante, S.139 - N°01  en si bémol mineur ''Chasse-neige''
TTITLE12=2 Études de concert, S.145 - N°1 - Dans les bois
TTITLE13=2 Études de concert, S.145 - N°2 - Ronde des lutins
TTITLE14='' Ab Irato ''  Grande étude de perfectionnement, S.143
EXTD=YEAR: 1973
EXTT0=
EXTT1=
EXTT2=
EXTT3=
EXTT4=
EXTT5=
EXTT6=
EXTT7=
EXTT8=
EXTT9=
EXTT10=
EXTT11=
EXTT12=
EXTT13=
EXTT14=
PLAYORDER=
